<?xml version="1.0" encoding="utf-8"?>
<!-- Generator: Adobe Illustrator 19.0.0, SVG Export Plug-In . SVG Version: 6.00 Build 0)  -->
<svg version="1.1" id="Layer_1" xmlns="http://www.w3.org/2000/svg" xmlns:xlink="http://www.w3.org/1999/xlink" x="0px" y="0px"
	 viewBox="0 0 297.5 125.1" style="enable-background:new 0 0 297.5 125.1;" xml:space="preserve">
<style type="text/css">
	.st0{fill:#FFFFFF;}
	.st1{fill:#A91829;}
</style>
<path id="XMLID_712_" class="st0" d="M54.8,119.6c-7.1,4.1-15,5.6-23,5.6C13,125.1,0,111.6,0,92.8s13-32.3,31.8-32.3
	c9.1,0,16.5,2.8,22.2,8.5l-4.2,4.3c-3.7-4.5-11.3-7.7-18-7.7c-16.1,0-26.1,11.8-26.1,27.1s10,27.1,26.1,27.1
	c6.6,0,12.5-0.9,17.2-3.7V95.6H34.3v-5.2h20.5V119.6z"/>
<path id="XMLID_714_" class="st0" d="M105.7,116c-4.1,6.1-10.3,8.6-17.4,8.6c-12.3,0-20.3-8.8-20.3-21.2c0-12,8.3-21,20.1-21
	c12.3,0,18.9,9.5,18.9,18.8v3.7H73.1c0,4.3,3,15.1,15.2,15.1c5.3,0,10.9-2.8,13.5-7.1L105.7,116z M101.7,100.1c0-7.1-6.2-13-13.9-13
	c-11.4,0-14.6,11-14.6,13H101.7z"/>
<path id="XMLID_737_" class="st0" d="M190,62h9.5l26.5,61.6h-12.5l-5.7-14.1H181l-5.6,14.1h-12.3L190,62z M203.9,100.1l-9.5-25
	l-9.7,25H203.9z"/>
<path id="XMLID_740_" class="st0" d="M232.1,81.8h10.4v41.7h-10.4V81.8z"/>
<path id="XMLID_743_" class="st0" d="M287.6,117.3h-0.2c-3,5-8.5,7.3-14.3,7.3c-12.9,0-20.6-9.6-20.6-21.9s8.3-21.9,20.2-21.9
	c7.8,0,12,3.7,14.2,6.3h0.3V57.8h10.4v65.7h-9.9V117.3z M275.1,115.2c7.7,0,12.3-6,12.3-12.5s-4.6-12.5-12.3-12.5s-12.3,6-12.3,12.5
	S267.5,115.2,275.1,115.2z"/>
<path id="XMLID_5_" class="st0" d="M137.4,82.4c-12.3,0-21.1,8.9-21.1,21.1c0,12.3,8.8,21.1,21.1,21.1s21.1-8.9,21.1-21.1
	C158.5,91.2,149.7,82.4,137.4,82.4z M153.3,102.6c0,0-0.1,0-0.1,0c-1.9,0-3.9,0-5.8,0c-0.1,0-0.2,0-0.2-0.2
	c-0.1-2.1-0.5-4.2-1.1-6.2c0,0,0,0,0,0c0.7-0.4,1.5-0.7,2.2-1.1c0.7-0.4,1.4-0.8,2.1-1.3c1.1,1.6,1.8,3.3,2.3,5.1
	C153,100,153.2,101.3,153.3,102.6z M147.8,116.3c-1.7,1.5-3.9,2.6-6.3,3.1c1.7-2,3.1-4.3,4.1-6.8c1.3,0.6,2.6,1.3,3.8,2.1
	C148.8,115.3,148.3,115.8,147.8,116.3z M138.4,87.1c2.4,2.2,4.2,4.8,5.4,7.9c-1.8,0.6-3.6,0.9-5.5,1c0-3,0-5.9,0-8.9
	C138.3,87.1,138.4,87.1,138.4,87.1z M147.7,90.7c0.5,0.5,1.1,1,1.5,1.6c-0.4,0.4-3.2,2-3.8,2.1c-1-2.6-2.4-4.8-4.2-6.9
	C143.8,88,146,89.1,147.7,90.7z M138.3,98.1c0-0.1,0-0.1,0-0.2c1.1-0.1,2.1-0.2,3.1-0.4c1-0.2,2-0.5,3-0.7c0.6,1.9,0.9,3.8,1,5.8
	c-0.1,0-0.1,0-0.2,0c-2.3,0-4.5,0-6.8,0c-0.2,0-0.2,0-0.2-0.2C138.3,100.9,138.3,99.5,138.3,98.1z M138.5,104.4c2.3,0,4.5,0,6.8,0
	c0.1,0,0.1,0,0.2,0c-0.1,2-0.4,3.9-1,5.9c-2-0.7-4.1-1.1-6.2-1.1c0-0.1,0-0.1,0-0.2c0-1.4,0-2.9,0-4.3
	C138.3,104.4,138.3,104.4,138.5,104.4z M136.3,119.9c-2.3-2.2-4.1-4.8-5.3-7.9c1.8-0.6,3.7-1,5.6-1c0,3,0,5.9,0,8.9
	C136.5,119.9,136.4,119.9,136.3,119.9z M128.2,117.2c-0.9-0.7-1.8-1.5-2.6-2.5c1.2-0.8,2.4-1.5,3.8-2.1c1,2.5,2.4,4.8,4.1,6.9
	C131.5,119,129.7,118.2,128.2,117.2z M128.2,89.8c1.6-1.1,3.4-1.9,5.4-2.3c-0.8,1-1.6,2-2.3,3c-0.8,1.2-1.4,2.5-2,3.9
	c-1.3-0.6-2.6-1.3-3.8-2.1C126.4,91.3,127.3,90.5,128.2,89.8z M130.4,96.7c2,0.7,4,1,6.1,1.1c0,0.1,0,0.1,0,0.2c0,1.5,0,2.9,0,4.4
	c0,0.1,0,0.2-0.2,0.2c-2.3,0-4.6,0-6.8,0c0,0-0.1,0-0.2,0C129.5,100.6,129.8,98.6,130.4,96.7z M128.8,96.1c-0.1,0.5-0.3,1-0.4,1.4
	c-0.4,1.6-0.6,3.2-0.7,4.8c0,0.2-0.1,0.2-0.2,0.2c-1.9,0-3.8,0-5.7,0c-0.1,0-0.1,0-0.2,0c0.2-3.3,1.2-6.2,2.9-8.9
	C125.9,94.7,127.3,95.4,128.8,96.1z M127.7,104.4c0.1,2.2,0.4,4.4,1.1,6.5c-1.5,0.7-2.9,1.4-4.3,2.4c-1.8-2.7-2.8-5.6-2.9-8.9
	C123.6,104.4,125.6,104.4,127.7,104.4z M136.6,108.9c0,0.1,0,0.1,0,0.2c-2.1,0.1-4.2,0.5-6.2,1.2c-0.6-1.9-0.9-3.9-1-5.9
	c0.1,0,0.1,0,0.2,0c2.3,0,4.5,0,6.8,0c0.2,0,0.2,0,0.2,0.2C136.6,106,136.6,107.5,136.6,108.9z M136.6,96c-0.7,0.2-4.6-0.5-5.5-1
	c0.6-1.5,1.4-3,2.3-4.3c0.9-1.3,1.9-2.5,3.1-3.6c0,0,0.1,0,0.1,0C136.6,90.1,136.6,93,136.6,96z M138.3,110.9c1.9,0.1,3.8,0.4,5.6,1
	c-1.2,3-3,5.7-5.3,7.9c-0.1,0-0.2,0-0.3,0C138.3,116.9,138.3,113.9,138.3,110.9z M150.4,113.3c-1.3-1-2.8-1.7-4.3-2.4
	c0.6-2.1,1-4.3,1.1-6.5c2,0,4,0,6.1,0c-0.1,1.3-0.2,2.5-0.5,3.7C152.2,109.9,151.5,111.7,150.4,113.3z"/>
<path id="XMLID_1076_" class="st0" d="M237.4,66.7c-6.8-9.2-13.5-17.7-19.6-26.6c-4.5-6.7-6.3-14.3-4-22.4
	C217,6.3,227.4-0.7,240.1,0c10.8,0.6,20,9.2,22,20.2c1.2,6.4-0.4,12.2-3.4,17.7c-2,3.6-4.2,7.1-6.7,10.3
	C247.5,54.3,242.7,60.2,237.4,66.7z"/>
<path id="XMLID_2_" class="st1" d="M224.9,21.2h9v-9h7.6v9h9v7.6h-9v9h-7.6v-9h-9V21.2z"/>
</svg>
