<svg width="108.7" height="146.1" xmlns="http://www.w3.org/2000/svg">
 <style type="text/css">.st0{fill:#A91829;}
	.st1{fill:#FFFFFF;}</style>

 <g>
  <title>background</title>
  <rect fill="none" id="canvas_background" height="402" width="582" y="-1" x="-1"/>
 </g>
 <g>
  <title>Layer 1</title>
  <path d="m53.9,146.1c-14.9,-20.1 -29.6,-38.7 -42.9,-58.2c-10,-14.6 -13.8,-31.3 -8.9,-49c7,-25.1 29.7,-40.3 57.5,-38.7c23.5,1.3 43.7,20.1 48.2,44.2c2.6,14.1 -0.8,26.8 -7.4,38.8c-4.3,7.9 -9.2,15.4 -14.6,22.6c-9.9,13.1 -20.5,25.9 -31.9,40.3z" class="st0" id="XMLID_1750_"/>
  <path d="m86.7,51.7c0,17.8 -14.3,32.2 -32.2,32.3c-17.8,0 -32.2,-14.3 -32.4,-32.2c-0.1,-17.7 14.3,-32.3 32.1,-32.4c18,-0.1 32.4,14.4 32.5,32.3zm-56,-17c-3.3,4.6 -5,9.7 -5.4,15.4c0.2,0 0.3,0 0.4,0c3.5,0 7,0 10.4,0c0.3,0 0.4,-0.1 0.4,-0.4c0.1,-2.8 0.6,-5.6 1.3,-8.3c0.2,-0.8 0.5,-1.6 0.7,-2.5c-2.7,-1.1 -5.4,-2.5 -7.8,-4.2zm39.5,4.3c0,0 0,0 0,0c1.2,3.6 1.8,7.2 2,10.9c0,0.3 0.1,0.3 0.3,0.3c3.5,0 7.1,0 10.6,0c0.1,0 0.2,0 0.3,0c-0.3,-5.6 -2.1,-10.7 -5.3,-15.3c-1.3,0.8 -2.6,1.5 -3.9,2.2c-1.3,0.6 -2.6,1.2 -4,1.9zm-44.9,14.3c0.3,5.6 2.1,10.7 5.4,15.4c2.5,-1.7 5.1,-3 7.8,-4.1c-1.2,-3.7 -1.8,-7.4 -2,-11.2c-3.8,-0.1 -7.5,-0.1 -11.2,-0.1zm46.9,0c-0.1,3.8 -0.8,7.6 -2,11.2c2.8,1.1 5.4,2.5 7.8,4.1c3.3,-4.6 5,-9.7 5.4,-15.4c-3.7,0.1 -7.4,0.1 -11.2,0.1zm-30.8,10.1c3.7,-1.2 7.5,-1.8 11.4,-2c0,-0.1 0,-0.3 0,-0.4c0,-2.5 0,-5 0,-7.4c0,-0.3 -0.1,-0.4 -0.4,-0.4c-4.1,0 -8.3,0 -12.4,0c-0.1,0 -0.2,0 -0.4,0c0.2,3.5 0.8,6.9 1.8,10.2zm14.6,-2c3.9,0.1 7.6,0.8 11.4,2c1.1,-3.3 1.6,-6.7 1.8,-10.1c-0.1,0 -0.2,0 -0.3,0c-4.2,0 -8.3,0 -12.5,0c-0.3,0 -0.3,0.1 -0.3,0.3c0,2.5 0,5 0,7.5c-0.2,0.1 -0.1,0.2 -0.1,0.3zm-0.1,-19.4c0,0 0,0.2 0,0.3c0,2.5 0,4.9 0,7.4c0,0.3 0.1,0.4 0.4,0.4c4.1,0 8.3,0 12.4,0c0.1,0 0.2,0 0.4,0c-0.2,-3.5 -0.8,-6.8 -1.8,-10c-1.9,0.4 -3.7,0.9 -5.6,1.2c-1.9,0.3 -3.8,0.5 -5.8,0.7zm-3.1,-0.1c-3.9,-0.1 -7.6,-0.8 -11.3,-2c-1.1,3.3 -1.7,6.7 -1.9,10.1c0.1,0 0.2,0 0.3,0c4.2,0 8.4,0 12.5,0c0.3,0 0.3,-0.1 0.3,-0.3c0,-2.5 0,-5 0,-7.5c0.1,0 0.1,-0.1 0.1,-0.3zm0,38.6c0,-5.4 0,-10.6 0,-15.9c-3.5,0.1 -6.9,0.7 -10.3,1.8c2.3,5.5 5.7,10.2 10.3,14.1zm3.2,-15.9c0,5.3 0,10.6 0,15.9c4.5,-3.9 7.9,-8.6 10.3,-14.1c-3.4,-1.1 -6.8,-1.7 -10.3,-1.8zm-3.2,-41.4c-2.3,1.9 -4.2,4 -5.9,6.4c-1.7,2.3 -3.1,4.8 -4.2,7.5c1.6,0.8 8.9,2 10.1,1.7c0,-5.2 0,-10.4 0,-15.6zm13.3,13.8c-2.3,-5.4 -5.7,-10 -10.1,-13.9c0,5.2 0,10.4 0,15.6c3.4,0 6.8,-0.6 10.1,-1.7zm-5.4,-13.7c3.5,3.7 6.3,7.9 8.3,12.7c1.1,-0.2 6.4,-3 7,-3.7c-4.1,-4.7 -9.2,-7.7 -15.3,-9zm-12.7,0c-6.1,1.4 -11.2,4.4 -15.4,9c2.3,1.5 4.6,2.7 7,3.7c1,-2.4 2.2,-4.6 3.6,-6.7c1.5,-2.2 3.1,-4.2 4.8,-6zm-15.4,47.8c2,2.2 4.3,4.1 6.8,5.6c2.4,1.4 7.1,3.3 8.2,3.3c-3.5,-3.7 -6.2,-7.9 -8.1,-12.6c-2.4,1 -4.7,2.2 -6.9,3.7zm36.6,-3.7c-1.9,4.7 -4.7,8.9 -8.1,12.6c5.9,-1.4 10.9,-4.4 15,-8.9c-2.2,-1.5 -4.5,-2.7 -6.9,-3.7z" class="st1" id="XMLID_1731_"/>
 </g>
</svg>