<svg width="57.2" height="76.8" xmlns="http://www.w3.org/2000/svg">
 <style type="text/css">.st0{fill:#1B9AB7;}
	.st1{fill:#FFFFFF;stroke:#1B9AB7;stroke-miterlimit:10;}</style>

 <g>
  <title>background</title>
  <rect fill="none" id="canvas_background" height="402" width="582" y="-1" x="-1"/>
 </g>
 <g>
  <title>Layer 1</title>
  <path d="m28.3,76.8c-7.8,-10.6 -15.5,-20.3 -22.5,-30.6c-5.2,-7.7 -7.3,-16.4 -4.7,-25.8c3.7,-13.2 15.6,-21.2 30.3,-20.3c12.4,0.7 23,10.6 25.3,23.2c1.4,7.4 -0.4,14.1 -3.9,20.4c-2.2,4.1 -4.8,8.1 -7.7,11.9c-5.2,6.9 -10.8,13.6 -16.8,21.2z" class="st0" id="XMLID_230_"/>
  <g id="XMLID_234_">
   <ellipse ry="6.9" rx="10.3" cy="34.3" cx="27.7" class="st1" id="XMLID_238_"/>
   <ellipse ry="6.9" rx="10.3" cy="30.8" cx="27.7" class="st1" id="XMLID_237_"/>
   <line y2="34.3" x2="17.4" y1="30.8" x1="17.4" class="st1" id="XMLID_236_"/>
   <line y2="34.6" x2="37.9" y1="30.6" x1="37.9" class="st1" id="XMLID_235_"/>
  </g>
  <g id="XMLID_219_">
   <ellipse ry="6.9" rx="10.3" cy="29.2" cx="24.6" class="st1" id="XMLID_223_"/>
   <ellipse ry="6.9" rx="10.3" cy="25.7" cx="24.6" class="st1" id="XMLID_222_"/>
   <line y2="29.2" x2="14.3" y1="25.7" x1="14.3" class="st1" id="XMLID_221_"/>
   <line y2="29.4" x2="34.8" y1="25.5" x1="34.8" class="st1" id="XMLID_220_"/>
  </g>
  <g id="XMLID_226_">
   <ellipse ry="6.9" rx="10.3" cy="24.1" cx="31" class="st1" id="XMLID_232_"/>
   <ellipse ry="6.9" rx="10.3" cy="20.6" cx="31" class="st1" id="XMLID_229_"/>
   <line y2="24.1" x2="20.7" y1="20.6" x1="20.7" class="st1" id="XMLID_228_"/>
   <line y2="24.3" x2="41.2" y1="20.4" x1="41.3" class="st1" id="XMLID_227_"/>
  </g>
 </g>
</svg>