<?xml version="1.0" encoding="utf-8"?>
<!-- Generator: Adobe Illustrator 19.0.0, SVG Export Plug-In . SVG Version: 6.00 Build 0)  -->
<svg version="1.1" id="Layer_1" xmlns="http://www.w3.org/2000/svg" xmlns:xlink="http://www.w3.org/1999/xlink" x="0px" y="0px"
	 viewBox="0 0 318.8 83" style="enable-background:new 0 0 318.8 83;" xml:space="preserve">
<style type="text/css">
	.st0{fill:#FFFFFF;}
	.st1{fill:#1F9AB7;stroke:#FFFFFF;stroke-width:0.25;stroke-miterlimit:10;}
	.st2{fill:#1F9AB7;}
</style>
<g id="XMLID_1868_">
	<g id="XMLID_1876_">
		<path id="XMLID_1911_" class="st0" d="M35.3,39.6c-3.2-3.4-6.2-4.3-9.2-4.3c-9,0-15,6.9-15,15.6c0,9.3,6,16.2,15,16.2
			c3.5,0,6.9-1.6,9.8-5.3l6.4,4.6c-3.9,5.4-9.9,7.8-16.3,7.8C12.6,74.1,3,65,3,51.4c0-14,9.6-23.1,23.1-23.1c5.9,0,11,1.9,15.3,6.9
			L35.3,39.6z"/>
		<path id="XMLID_1905_" class="st0" d="M50.7,28.9c2.7,0,4.8,1.9,4.8,4.4c0,2.5-2.1,4.4-4.8,4.4c-2.7,0-4.7-2.1-4.7-4.4
			S48,28.9,50.7,28.9z M47,43.4h7.4V73H47V43.4z"/>
		<path id="XMLID_1903_" class="st0" d="M58.9,43.4H67l7.9,20.7H75l8-20.7h7.6L78.9,73H71L58.9,43.4z"/>
		<path id="XMLID_1901_" class="st0" d="M95.1,43.4h7.4V73h-7.4V43.4z"/>
		<path id="XMLID_1899_" class="st0" d="M131.2,52.3c-1.7-1.8-3.6-3-5.6-3c-5.4,0-8.7,4.3-8.7,8.9s3.3,8.9,8.7,8.9
			c2.3,0,4.4-1,5.7-2.8l4.9,5.3c-3,3-8.1,4.1-10.7,4.1c-8.9,0-16.1-6.2-16.1-15.5s7.2-15.5,16.1-15.5c3.8,0,7.9,1.4,10.7,4.5
			L131.2,52.3z"/>
		<path id="XMLID_1895_" class="st0" d="M142.5,29.4h12.6c6.7,0,14.1,1.7,14.1,11.5c0,4.4-2.7,8-7.8,9.1v0.1
			c5.7,0.4,9.7,4.6,9.7,10.7c0,10.1-8.7,12.2-14.6,12.2h-13.9V29.4z M146.6,48.2h8.5c8.4,0,10.1-4.6,10.1-7.3c0-6.1-4.3-7.8-9.5-7.8
			h-9V48.2z M146.6,69.3h9.3c9.6,0,11.1-5.3,11.1-8.4c0-6.5-5.3-9-10.5-9h-9.9V69.3z"/>
		<path id="XMLID_1886_" class="st0" d="M180.9,26.4h3.7V73h-3.7V26.4z"/>
		<path id="XMLID_1883_" class="st0" d="M208.5,43.8c8.8,0,15,6.3,15,15s-6.2,15-15,15c-8.8,0-15-6.3-15-15S199.8,43.8,208.5,43.8z
			 M208.5,70.4c7,0,11.3-5.2,11.3-11.7s-4.3-11.7-11.3-11.7c-7,0-11.3,5.2-11.3,11.7S201.5,70.4,208.5,70.4z"/>
		<path id="XMLID_1881_" class="st0" d="M255.6,68.8c-2.8,3.3-6.4,4.9-10.5,4.9c-8.8,0-15-6.3-15-15s6.2-15,15-15
			c4.1,0,7.8,1.8,10.6,4.9l-3,2.2c-2.2-2.3-4.7-3.8-7.6-3.8c-7,0-11.3,5.2-11.3,11.7s4.3,11.7,11.3,11.7c3.1,0,5.7-1.6,7.6-3.9
			L255.6,68.8z"/>
		<path id="XMLID_1879_" class="st0" d="M261.4,26.4h3.7v31.1l14.1-12.9h5.4l-14.7,13L286.3,73h-5.6l-15.6-15v15h-3.7V26.4z"/>
		<path id="XMLID_1877_" class="st0" d="M291.2,65.8c1.5,3,4.9,4.7,8.3,4.7c3.2,0,6.5-2,6.5-5.2c0-7.8-16.9-2.3-16.9-13.2
			c0-5.6,5.1-8.2,9.7-8.2c4.6,0,8.2,1.7,10.1,5.4l-3.3,2c-1.4-2.6-3.4-4-6.7-4c-2.7,0-6,1.6-6,4.6c0,7.7,16.9,1.7,16.9,13.3
			c0,5.9-4.9,8.8-10.3,8.8c-4.9,0-9.3-1.9-11.5-5.8L291.2,65.8z"/>
	</g>
	<g id="XMLID_1869_">
		<path id="XMLID_1874_" class="st0" d="M98.9,36.6c-3.5-4.8-7-9.2-10.2-13.8c-2.4-3.5-3.3-7.4-2.1-11.7c1.7-6,7.1-9.6,13.7-9.2
			c5.6,0.3,10.4,4.8,11.5,10.5c0.6,3.3-0.2,6.4-1.8,9.2c-1,1.9-2.2,3.7-3.5,5.4C104.1,30.2,101.6,33.2,98.9,36.6z"/>
		<g id="XMLID_1870_">
			<rect id="XMLID_1873_" x="94.7" y="14.6" class="st1" width="8.7" height="7.6"/>
			<polygon id="XMLID_1872_" class="st2" points="92.6,14.2 99,7.7 105.3,14.2 			"/>
			<rect id="XMLID_1871_" x="98.1" y="18.9" class="st0" width="1.7" height="3.3"/>
		</g>
	</g>
</g>
</svg>
