<svg width="86.5" height="114.5" xmlns="http://www.w3.org/2000/svg">
 <style type="text/css">.st0{fill:#1F9AB7;}
	.st1{fill:#FFFFFF;}</style>

 <g>
  <title>background</title>
  <rect fill="none" id="canvas_background" height="402" width="582" y="-1" x="-1"/>
 </g>
 <g>
  <title>Layer 1</title>
  <g id="XMLID_1907_">
   <path d="m-318.2,350.6c-11,-14.9 -21.9,-28.6 -31.7,-43.1c-7.4,-10.9 -10.3,-23.2 -6.6,-36.3c5.2,-18.6 22,-29.9 42.6,-28.7c17.5,1 32.4,14.9 35.7,32.8c1.9,10.4 -0.6,19.9 -5.5,28.8c-3.2,5.8 -6.8,11.4 -10.8,16.7c-7.3,9.7 -15.2,19.1 -23.7,29.8z" class="st0" id="XMLID_1912_"/>
   <g id="XMLID_1908_">
    <polygon points="-335.8,275.7 -317.5,257.1 -299.2,275.7   " class="st1" id="XMLID_1910_"/>
    <polygon points="-329.8,276.9 -329.8,298.8 -320,298.8 -320,289.3 -315.1,289.3 -315.1,298.8     -304.9,298.8 -304.9,276.9   " class="st1" id="XMLID_1928_"/>
   </g>
  </g>
  <style transform="matrix(0.7787499552171226,0,0,0.7787499552171226,601.3609375678191,-396.36663915496547) " type="text/css">.st0{fill:#1F9AB7;}
	.st1{fill:#FFFFFF;}</style>
  <path d="m43.288904,99.808681c-8.56625,-11.603374 -17.054624,-22.272249 -24.686374,-33.564123c-5.76275,-8.488375 -8.021125,-18.066999 -5.13975,-28.268623c4.0495,-14.484749 17.132499,-23.284624 33.174748,-22.350124c13.628124,0.77875 25.231499,11.603374 27.801373,25.542999c1.479625,8.099 -0.46725,15.497124 -4.283125,22.427999c-2.492,4.51675 -5.2955,8.877749 -8.4105,13.005124c-5.684875,7.553875 -11.836999,14.874124 -18.456374,23.206749z" class="st0" id="svg_13"/>
  <polygon points="29.582890461975694,41.48034227321534 43.83405266734917,26.995564587501747 58.08511981047229,41.48034227321534 " class="st1" id="svg_12"/>
  <polygon points="34.25539019327846,42.41480419457571 34.25539019327846,59.46939969515557 41.887130248181165,59.46939969515557 41.887130248181165,52.071322651718106 45.703024041195135,52.071322651718106 45.703024041195135,59.46939969515557 53.646283090634824,59.46939969515557 53.646283090634824,42.41480419457571 " class="st1" id="svg_11"/>
 </g>
</svg>