<svg width="57.2" height="76.8" xmlns="http://www.w3.org/2000/svg">
 <style type="text/css">.st0{fill:#90C02F;}
	.st1{fill:#FFFFFF;stroke:#90C02F;stroke-miterlimit:10;}</style>

 <g>
  <title>background</title>
  <rect fill="none" id="canvas_background" height="402" width="582" y="-1" x="-1"/>
 </g>
 <g>
  <title>Layer 1</title>
  <path d="m28.533328,76.9c-7.8,-10.6 -15.5,-20.4 -22.5,-30.6c-5.2,-7.7 -7.3,-16.4 -4.7,-25.8c3.8,-13.2 15.7,-21.2 30.3,-20.4c12.4,0.7 23,10.6 25.3,23.2c1.4,7.4 -0.4,14.1 -3.9,20.4c-2.2,4.1 -4.8,8.1 -7.7,11.9c-5.2,7 -10.7,13.7 -16.8,21.3z" class="st0" id="XMLID_298_"/>
  <g id="XMLID_293_">
   <ellipse ry="6.9" rx="10.3" cy="34.4" cx="27.933328" class="st1" id="XMLID_297_"/>
   <ellipse ry="6.9" rx="10.3" cy="30.9" cx="27.933328" class="st1" id="XMLID_296_"/>
   <line y2="34.4" x2="17.633328" y1="30.9" x1="17.633328" class="st1" id="XMLID_295_"/>
   <line y2="34.6" x2="38.133328" y1="30.7" x1="38.133328" class="st1" id="XMLID_294_"/>
  </g>
  <g id="XMLID_287_">
   <ellipse ry="6.9" rx="10.3" cy="29.3" cx="24.833328" class="st1" id="XMLID_291_"/>
   <ellipse ry="6.9" rx="10.3" cy="25.8" cx="24.833328" class="st1" id="XMLID_290_"/>
   <line y2="29.3" x2="14.533328" y1="25.8" x1="14.533328" class="st1" id="XMLID_289_"/>
   <line y2="29.5" x2="35.033328" y1="25.6" x1="35.033328" class="st1" id="XMLID_288_"/>
  </g>
  <g id="XMLID_276_">
   <ellipse ry="6.9" rx="10.3" cy="24.2" cx="31.233328" class="st1" id="XMLID_285_"/>
   <ellipse ry="6.9" rx="10.3" cy="20.7" cx="31.233328" class="st1" id="XMLID_284_"/>
   <line y2="24.2" x2="21.033328" y1="20.7" x1="21.033328" class="st1" id="XMLID_283_"/>
   <line y2="24.4" x2="41.533328" y1="20.5" x1="41.533328" class="st1" id="XMLID_282_"/>
  </g>
 </g>
</svg>