<?xml version="1.0" encoding="utf-8"?>
<!-- Generator: Adobe Illustrator 19.0.0, SVG Export Plug-In . SVG Version: 6.00 Build 0)  -->
<svg version="1.1" id="Layer_1" xmlns="http://www.w3.org/2000/svg" xmlns:xlink="http://www.w3.org/1999/xlink" x="0px" y="0px"
	 viewBox="0 0 238.9 66.6" style="enable-background:new 0 0 238.9 66.6;" xml:space="preserve">
<style type="text/css">
	.st0{fill:#FFFFFF;}
</style>
<g id="XMLID_40_">
	<g id="XMLID_203_">
		<g id="XMLID_172_">
			<path id="XMLID_188_" class="st0" d="M40.5,62.3c-5.2,2.8-11.2,4.2-17.8,4.2C9.5,66.6,0,57.6,0,44.2c0-13.8,9.5-22.8,22.7-22.8
				c6.6,0,12.4,1.4,16.9,5.4L34,32.5c-2.7-2.7-6.9-4.2-11.2-4.2C13.9,28.3,8,35.1,8,43.7c0,9.2,5.9,16,14.7,16
				c3.9,0,7.4-0.7,10.1-2.2V47.3H24v-6.9h16.5V62.3z"/>
			<path id="XMLID_185_" class="st0" d="M54.7,53.5c0.5,4.3,3.8,6.9,7.8,6.9c3.6,0,6-1.7,7.8-3.9l5.2,3.9c-3.4,4.2-7.7,5.8-12.3,5.8
				c-8.8,0-15.8-6.1-15.8-15.3s7-15.3,15.8-15.3c8.1,0,13.7,5.7,13.7,15.8v2H54.7z M69.6,48c-0.1-4.2-2.9-6.9-7.4-6.9
				c-4.3,0-7,2.7-7.5,6.9H69.6z"/>
			<path id="XMLID_182_" class="st0" d="M98.1,35.6c8.8,0,15.8,6.1,15.8,15.3s-7,15.3-15.8,15.3c-8.8,0-15.8-6.1-15.8-15.3
				S89.3,35.6,98.1,35.6z M98.1,59.6c5.3,0,8.6-4.2,8.6-8.7s-3.2-8.7-8.6-8.7c-5.3,0-8.6,4.2-8.6,8.7S92.8,59.6,98.1,59.6z"/>
			<path id="XMLID_180_" class="st0" d="M157.9,58.7c-4.1,5.6-9.7,7.8-16,7.8c-13.1,0-22.2-9.5-22.2-22.6s9.1-22.6,22.2-22.6
				c5.8,0,11,1.9,14.8,6.7l-3.3,2.7c-2.7-4-7.2-5.8-11.5-5.8c-11.2,0-18.2,8.3-18.2,18.9s7,18.9,18.2,18.9c4.3,0,9.7-2.1,12.7-6.7
				L157.9,58.7z"/>
			<path id="XMLID_177_" class="st0" d="M177.4,36.7c8.6,0,14.7,6.2,14.7,14.8s-6.1,14.8-14.7,14.8c-8.6,0-14.7-6.2-14.7-14.8
				S168.7,36.7,177.4,36.7z M177.4,62.9c6.9,0,11.1-5.2,11.1-11.5S184.2,40,177.4,40c-6.9,0-11.1,5.2-11.1,11.5
				S170.5,62.9,177.4,62.9z"/>
			<path id="XMLID_175_" class="st0" d="M200.9,37.4h3.6v28h-3.6V37.4z"/>
			<path id="XMLID_173_" class="st0" d="M214.8,45.3c0-2.1-0.3-6.4-0.3-7.9h3.6c0.1,2.1,0.1,4.4,0.2,4.9h0.2c1.5-3.1,5-5.6,9.6-5.6
				c8.7,0,10.7,5.9,10.7,12.1v16.7h-3.6V49c0-4.6-1.3-9-7-9c-5.4,0-9.7,3.8-9.7,11.5v14h-3.6V45.3z"/>
		</g>
	</g>
</g>
<path id="XMLID_2_" class="st0" d="M202.6,32.4c-3.3-4.5-6.6-8.6-9.5-12.9c-2.2-3.3-3.1-6.9-2-10.9c1.6-5.6,6.6-8.9,12.8-8.6
	c5.2,0.3,9.7,4.5,10.7,9.8c0.6,3.1-0.2,5.9-1.6,8.6c-0.9,1.7-2,3.4-3.2,5C207.5,26.4,205.1,29.2,202.6,32.4z M207.5,16.9
	c-0.5,1.2-2.2,2.2-4.2,2.2s-3.7-0.9-4.2-2.2c0,0,0,0.1,0,0.1v1.3c0.5,1.3,2.2,2.2,4.2,2.2c2,0,3.7-1,4.2-2.2L207.5,16.9
	C207.5,16.9,207.5,16.9,207.5,16.9z M204.4,13.3v0.5c-0.2,0.5-0.6,1-1.2,1.4c-0.8,0.6-2,1-3.3,1c-0.3,0-0.6,0-0.8-0.1
	c0,0.1,0,0.2,0,0.2c0,0.1,0,0.1,0,0.2c0,0.1,0,0.1,0.1,0.1c0.5,1.2,2.1,2,4,2s3.6-0.9,4-2c0,0,0.1-0.1,0.1-0.1c0-0.1,0-0.1,0-0.2
	c0-0.1,0-0.2,0.1-0.3l0-0.1C207.5,14.6,206.2,13.6,204.4,13.3z M208.4,8.8c-0.5,1.2-2.2,2.2-4.2,2.2s-3.7-0.9-4.2-2.2
	c0,0,0,0.1,0,0.1v1.3c0.5,1.3,2.2,2.2,4.2,2.2c2,0,3.7-1,4.2-2.2L208.4,8.8C208.5,8.8,208.5,8.8,208.4,8.8z M203.9,12.7
	c-0.7,1-2.2,1.7-3.9,1.7c-2,0-3.7-0.9-4.2-2.2c0,0,0,0.1,0,0.1v1.3c0.5,1.3,2.2,2.2,4.2,2.2c2,0,3.7-1,4.2-2.2v-0.9
	C204.1,12.7,204,12.7,203.9,12.7z M204.3,5.1c-2.3,0-4.2,1.2-4.2,2.8c0,0.1,0,0.3,0.1,0.4c0,0.1,0,0.1,0,0.2c0,0.1,0,0.1,0.1,0.1
	c0.5,1.2,2.1,2,4,2s3.6-0.9,4-2c0,0,0.1-0.1,0.1-0.1c0-0.1,0-0.1,0-0.2c0-0.1,0-0.2,0.1-0.3l0-0.1C208.4,6.3,206.6,5.1,204.3,5.1z
	 M208.5,7.9C208.5,7.9,208.5,7.8,208.5,7.9L208.5,7.9C208.5,7.9,208.5,7.9,208.5,7.9z M199.8,10.4V9.1c0,0,0-0.7,0-0.7s0,0,0,0
	c-2.3,0-4.1,1.2-4.1,2.8c0,0.1,0,0.3,0.1,0.4c0,0.1,0,0.1,0,0.2c0,0.1,0,0.1,0.1,0.1c0.5,1.2,2.1,2,4,2c1.6,0,2.9-0.6,3.6-1.4
	C201.7,12.5,200.2,11.6,199.8,10.4z"/>
</svg>
